<svg width="358" height="96" viewBox="0 0 358 96" fill="none" xmlns="http://www.w3.org/2000/svg">
<path d="M44.7311 20.8285L29.3827 42.9342L21.1565 43.0865L40.6552 15L44.7311 20.8285Z" fill="white"/>
<path d="M8.06424 73.1792L24.7836 49.105L16.6142 49.2562L0 73.1792H8.06424Z" fill="white"/>
<path d="M30.3983 73.1791H81L63.5312 48.6035L32.1772 49.1703H32.1714L15.112 73.1791H30.3983Z" fill="white"/>
<path d="M59.8431 42.585H36.2685L36.2974 42.5405H36.3032L48.0558 26.034L59.5109 42.1212H59.5166L59.8431 42.585Z" fill="white"/>
<path d="M99.28 73H106.224L109.584 62.6H128.496L131.92 73H138.864L123.888 26.92H114.256L99.28 73ZM111.632 56.328L118.992 33.608L126.448 56.328H111.632ZM143.105 73H149.793V56.456H161.729C162.156 56.456 162.7 56.4347 163.361 56.392C164.044 56.3493 164.684 56.2853 165.281 56.2C169.121 55.5813 172.001 53.9387 173.921 51.272C175.862 48.6053 176.833 45.4053 176.833 41.672C176.833 37.9387 175.873 34.7387 173.953 32.072C172.033 29.4053 169.142 27.7733 165.281 27.176C164.684 27.0693 164.054 27.0053 163.393 26.984C162.732 26.9413 162.177 26.92 161.729 26.92H143.105V73ZM149.793 50.12V33.224H161.473C161.9 33.224 162.369 33.2453 162.881 33.288C163.414 33.3307 163.916 33.416 164.385 33.544C166.433 34.0133 167.884 35.0587 168.737 36.68C169.59 38.3013 170.017 39.9653 170.017 41.672C170.017 43.3573 169.59 45.0213 168.737 46.664C167.884 48.2853 166.433 49.3413 164.385 49.832C163.916 49.9387 163.414 50.0133 162.881 50.056C162.369 50.0987 161.9 50.12 161.473 50.12H149.793ZM181.73 73H188.418V56.456H200.354C200.781 56.456 201.325 56.4347 201.986 56.392C202.669 56.3493 203.309 56.2853 203.906 56.2C207.746 55.5813 210.626 53.9387 212.546 51.272C214.487 48.6053 215.458 45.4053 215.458 41.672C215.458 37.9387 214.498 34.7387 212.578 32.072C210.658 29.4053 207.767 27.7733 203.906 27.176C203.309 27.0693 202.679 27.0053 202.018 26.984C201.357 26.9413 200.802 26.92 200.354 26.92H181.73V73ZM188.418 50.12V33.224H200.098C200.525 33.224 200.994 33.2453 201.506 33.288C202.039 33.3307 202.541 33.416 203.01 33.544C205.058 34.0133 206.509 35.0587 207.362 36.68C208.215 38.3013 208.642 39.9653 208.642 41.672C208.642 43.3573 208.215 45.0213 207.362 46.664C206.509 48.2853 205.058 49.3413 203.01 49.832C202.541 49.9387 202.039 50.0133 201.506 50.056C200.994 50.0987 200.525 50.12 200.098 50.12H188.418ZM239.587 73.96C244.195 73.96 248.12 72.9467 251.363 70.92C254.606 68.8933 257.08 66.088 258.787 62.504C260.494 58.8987 261.347 54.7173 261.347 49.96C261.347 45.2027 260.494 41.032 258.787 37.448C257.08 33.8427 254.606 31.0267 251.363 29C248.12 26.9733 244.195 25.96 239.587 25.96C234.979 25.96 231.054 26.9733 227.811 29C224.568 31.0267 222.083 33.8427 220.355 37.448C218.648 41.032 217.795 45.2027 217.795 49.96C217.795 54.7173 218.648 58.8987 220.355 62.504C222.083 66.088 224.568 68.8933 227.811 70.92C231.054 72.9467 234.979 73.96 239.587 73.96ZM239.587 67.592C234.702 67.5493 231.022 65.9173 228.547 62.696C226.094 59.4747 224.878 55.2293 224.899 49.96C224.92 46.44 225.464 43.3573 226.531 40.712C227.619 38.0453 229.251 35.976 231.427 34.504C233.603 33.0107 236.323 32.2853 239.587 32.328C244.494 32.3493 248.163 33.9707 250.595 37.192C253.027 40.4133 254.243 44.6693 254.243 49.96C254.243 53.48 253.699 56.5733 252.611 59.24C251.544 61.8853 249.923 63.944 247.747 65.416C245.571 66.888 242.851 67.6133 239.587 67.592ZM266.87 73H294.422V66.696H273.558V26.92H266.87V73ZM298.995 73H326.547V66.696H305.683V26.92H298.995V73ZM335.209 73H341.993V53.96L357.577 26.92H349.769L338.601 46.28L327.433 26.92H319.625L335.209 53.96V73Z" fill="white"/>
</svg>
